<svg height="512pt" viewBox="-16 0 512 512" width="512pt" xmlns="http://www.w3.org/2000/svg"><path d="m477.738281 146.488281-41.050781-41.054687c-4.15625-4.15625-9.269531-7.003906-14.839844-8.351563 1.265625-2.886719 1.976563-6.070312 1.976563-9.421875 0-4.367187-1.203125-8.460937-3.285157-11.96875 6.769532-4.136718 11.300782-11.597656 11.300782-20.09375v-32.066406c0-12.972656-10.558594-23.53125-23.53125-23.53125h-336.679688c-12.976562 0-23.53125 10.558594-23.53125 23.53125v32.066406c0 8.496094 4.527344 15.957032 11.296875 20.09375-2.082031 3.507813-3.28125 7.601563-3.28125 11.96875 0 3.351563.707031 6.535156 1.976563 9.421875-5.574219 1.347657-10.683594 4.195313-14.839844 8.351563l-41.054688 41.050781c-2.1445308 2.148437-2.785156 5.371094-1.625 8.175781 1.160157 2.800782 3.898438 4.628906 6.929688 4.628906 6.789062 0 12.148438.792969 16.75 2.101563-15.441406 25.085937-20.410156 55.585937-13.601562 84.332031l55.855468 235.832032c4.246094 17.925781 20.078125 30.445312 38.5 30.445312h269.929688c18.421875 0 34.253906-12.519531 38.5-30.445312l55.855468-235.832032c6.808594-28.746094 1.839844-59.25-13.601562-84.335937 4.597656-1.304688 9.960938-2.097657 16.75-2.097657 3.035156 0 5.769531-1.824218 6.929688-4.628906 1.160156-2.800781.515624-6.027344-1.628907-8.171875zm-414.640625-122.957031c0-4.703125 3.828125-8.53125 8.53125-8.53125h336.679688c4.703125 0 8.53125 3.828125 8.53125 8.53125v32.066406c0 4.703125-3.828125 8.53125-8.53125 8.53125h-24.050782c-4.140624 0-7.5 3.355469-7.5 7.5 0 4.140625 3.359376 7.5 7.5 7.5h16.035157c4.703125 0 8.53125 3.828125 8.53125 8.53125s-3.828125 8.53125-8.53125 8.53125h-320.648438c-4.703125 0-8.53125-3.828125-8.53125-8.53125s3.828125-8.53125 8.53125-8.53125h272.546875c4.144532 0 7.5-3.359375 7.5-7.5 0-4.144531-3.355468-7.5-7.5-7.5h-280.5625c-4.703125 0-8.53125-3.828125-8.53125-8.53125zm391.59375 218.734375-55.855468 235.832031c-2.636719 11.128906-12.464844 18.902344-23.902344 18.902344h-269.929688c-11.4375 0-21.269531-7.773438-23.902344-18.902344l-55.855468-235.832031c-6.046875-25.519531-1.367188-52.632813 12.808594-74.65625 1.398437.832031 2.792968 1.695313 4.214843 2.578125 9.925781 6.164062 21.179688 13.152344 42.679688 13.152344 21.507812 0 32.761719-6.988282 42.691406-13.152344 9.417969-5.847656 17.550781-10.898438 34.777344-10.898438 17.238281 0 25.375 5.050782 34.792969 10.898438 9.933593 6.164062 21.191406 13.152344 42.703124 13.152344 21.507813 0 32.761719-6.988282 42.691407-13.152344 9.417969-5.847656 17.550781-10.898438 34.78125-10.898438 17.242187 0 25.382812 5.050782 34.808593 10.898438 9.9375 6.164062 21.199219 13.152344 42.714844 13.152344 21.519532 0 32.78125-6.988282 42.71875-13.152344 1.429688-.886719 2.835938-1.753906 4.242188-2.589844 14.1875 22.023438 18.863281 49.144532 12.820312 74.667969zm-24.972656-84.824219c-9.425781 5.847656-17.5625 10.898438-34.808594 10.898438-17.242187 0-25.382812-5.050782-34.808594-10.898438-9.933593-6.164062-21.199218-13.152344-42.714843-13.152344-21.507813 0-32.761719 6.988282-42.691407 13.152344-9.417968 5.847656-17.550781 10.898438-34.78125 10.898438-17.234374 0-25.371093-5.050782-34.792968-10.898438-9.933594-6.164062-21.191406-13.152344-42.703125-13.152344-21.503907 0-32.761719 6.988282-42.691407 13.152344-9.417968 5.847656-17.550781 10.894532-34.777343 10.894532-17.222657 0-25.355469-5.046876-34.769531-10.894532-7.011719-4.355468-14.691407-9.125-26.179688-11.546875l29.855469-29.855469c3.125-3.125 7.28125-4.847656 11.703125-4.847656h47.945312l-12.078125 18.453125c-2.269531 3.464844-1.296875 8.113281 2.167969 10.382813 1.265625.828125 2.691406 1.226562 4.101562 1.226562 2.445313 0 4.84375-1.195312 6.28125-3.394531l17.457032-26.667969h167.34375l4.421875 10.453125c1.210937 2.859375 3.988281 4.578125 6.914062 4.578125.972657 0 1.964844-.191406 2.917969-.59375 3.816406-1.613281 5.597656-6.015625 3.984375-9.828125l-1.949219-4.609375h99.3125c4.417969 0 8.574219 1.722656 11.699219 4.847656l29.855469 29.851563c-11.503906 2.425781-19.191406 7.195313-26.214844 11.550781zm0 0"/><path d="m376.242188 464.9375h-272.546876c-4.144531 0-7.5 3.355469-7.5 7.5 0 4.140625 3.355469 7.5 7.5 7.5h272.546876c4.144531 0 7.5-3.359375 7.5-7.5 0-4.144531-3.355469-7.5-7.5-7.5zm0 0"/></svg>